<?xml version="1.0" encoding="utf-8"?>
<!-- Generator: Adobe Illustrator 23.0.4, SVG Export Plug-In . SVG Version: 6.00 Build 0)  -->
<svg version="1.1" id="Layer_1" xmlns="http://www.w3.org/2000/svg" xmlns:xlink="http://www.w3.org/1999/xlink" x="0px" y="0px"
	 viewBox="0 0 165.7 50.4" style="enable-background:new 0 0 165.7 50.4;" xml:space="preserve">
<style type="text/css">
	.st0{fill:#FFFFFF;}
</style>
<g>
	<path class="st0" d="M44,10.8v29.6c-2.4-0.8-5-1.1-7.7-1.1c-3.7,0-9.1,1.4-12.1,3.3V13c-3.2-2.4-7.8-3.3-12.1-3.3S3.2,10.6,0.1,13
		v32.1c0,0.5,0.5,1.1,1.1,1.1c0.2,0,0.3-0.1,0.5-0.1c3-1.4,7.2-2.4,10.4-2.4c4.3,0,8.9,0.9,12.1,3.3c3-1.9,8.3-3.3,12.1-3.3
		c3.6,0,7.4,0.7,10.4,2.3c0.2,0.1,0.3,0.1,0.5,0.1c0.5,0,1.1-0.5,1.1-1.1v-2.4V13C47,12,45.6,11.3,44,10.8z"/>
	<g>
		<path class="st0" d="M25.1,13.8v27.9c7.3-7.6,17.9-6.3,17.9-6.3v-33C43.1,2.4,25.1,3.2,25.1,13.8z"/>
	</g>
</g>
<path class="st0" d="M53.3,27.6c0-1.1,0.2-2,0.5-2.7c0.3-0.7,0.7-1.3,1.2-1.7c0.5-0.4,0.9-0.7,1.5-0.9s1-0.3,1.4-0.3
	c0.4,0,0.7,0,1,0.1c0.3,0.1,0.5,0.2,0.7,0.3s0.4,0.2,0.5,0.3c0.2,0.1,0.3,0.2,0.4,0.3c0-1,0-1.9,0-2.9c0-0.9-0.1-1.9-0.1-2.9
	c0.4,0.1,0.7,0.1,1.1,0.1c0.3,0,0.7,0,1.1,0c0.8,0,1.6-0.1,2.3-0.2c-0.1,1.3-0.1,2.6-0.2,3.9c0,1.4,0,2.7,0,3.9c0,0.9,0,1.7,0,2.4
	c0,0.7,0,1.4,0,1.9c0,0.6,0,1.1,0.1,1.6c0,0.5,0.1,1,0.1,1.5c-0.4-0.1-0.7-0.1-1-0.1c-0.3,0-0.7-0.1-1-0.1c-0.4,0-0.7,0-1,0.1
	c-0.3,0-0.7,0.1-1,0.1c0-0.4,0.1-0.8,0.1-1.2c-0.2,0.3-0.4,0.5-0.6,0.6c-0.2,0.2-0.4,0.3-0.7,0.4c-0.2,0.1-0.5,0.2-0.7,0.2
	c-0.3,0-0.6,0.1-0.9,0.1c-0.8,0-1.5-0.1-2.1-0.4c-0.6-0.3-1-0.7-1.4-1.2c-0.4-0.5-0.6-1.1-0.8-1.7C53.4,28.9,53.3,28.2,53.3,27.6z
	 M59.2,31.1c0.3,0,0.6-0.1,0.7-0.3s0.3-0.4,0.4-0.8c0.1-0.3,0.2-0.7,0.2-1.2c0-0.5,0-1,0-1.5c0-1.3-0.1-2.1-0.3-2.7
	c-0.2-0.5-0.5-0.8-1-0.8c-0.3,0-0.5,0.1-0.7,0.3c-0.2,0.2-0.3,0.5-0.4,0.8c-0.1,0.3-0.2,0.7-0.2,1.2c0,0.5-0.1,0.9-0.1,1.5
	c0,0.5,0,0.9,0.1,1.3s0.1,0.8,0.2,1.1c0.1,0.3,0.2,0.6,0.4,0.7C58.6,31,58.9,31.1,59.2,31.1z"/>
<path class="st0" d="M67.1,27.1c0-0.8,0-1.4,0-1.9s0-0.9,0-1.2c0-0.3,0-0.6-0.1-0.9c0-0.3,0-0.6-0.1-1c0.4,0.1,0.8,0.1,1.1,0.1
	c0.4,0,0.8,0,1.1,0c0.8,0,1.5-0.1,2.3-0.2c-0.1,1.1-0.1,2.1-0.2,3c0,0.9,0,1.7,0,2.4v1.1c0,0.3,0,0.6,0,1s0,0.7,0,1.1s0,0.7,0,1.1
	c0,0.3,0,0.7,0.1,0.9c-0.4-0.1-0.8-0.1-1.2-0.1c-0.4,0-0.8-0.1-1.2-0.1c-0.4,0-0.7,0-1.1,0.1c-0.4,0-0.7,0.1-1.1,0.1
	c0-0.5,0.1-0.9,0.1-1.3c0-0.4,0-0.7,0.1-1.1c0-0.4,0-0.8,0-1.3C67.1,28.5,67.1,27.9,67.1,27.1z M67.1,19.1c0-0.3,0.1-0.6,0.2-0.8
	c0.1-0.3,0.3-0.5,0.5-0.7c0.2-0.2,0.4-0.4,0.7-0.5c0.3-0.1,0.5-0.2,0.8-0.2c0.3,0,0.6,0.1,0.8,0.2c0.3,0.1,0.5,0.3,0.7,0.5
	c0.2,0.2,0.4,0.4,0.5,0.7c0.1,0.3,0.2,0.5,0.2,0.8s-0.1,0.6-0.2,0.8c-0.1,0.3-0.3,0.5-0.5,0.7c-0.2,0.2-0.4,0.3-0.7,0.5
	c-0.3,0.1-0.5,0.2-0.8,0.2c-0.3,0-0.6-0.1-0.8-0.2s-0.5-0.3-0.7-0.5c-0.2-0.2-0.4-0.4-0.5-0.7C67.1,19.7,67.1,19.4,67.1,19.1z"/>
<path class="st0" d="M74,26.9c0-0.3,0-0.7,0-1.1c0-0.4,0-0.8,0-1.3s0-0.8-0.1-1.3c0-0.4-0.1-0.8-0.1-1.1c0.4,0.1,0.8,0.1,1.2,0.1
	c0.4,0,0.8,0,1.2,0c0.4,0,0.7,0,1.1-0.1s0.7-0.1,1.1-0.1c-0.1,1.2-0.1,2.4-0.2,3.6c0,1.2,0,2.4,0,3.6c0,0.6,0,1.2,0,1.8
	c0,0.6,0,1.2,0,1.8c0,0.9-0.2,1.6-0.5,2.2c-0.3,0.6-0.8,1.1-1.4,1.5c-0.6,0.4-1.2,0.7-2,0.8c-0.7,0.2-1.5,0.3-2.3,0.4
	c0-0.2,0-0.4-0.1-0.7s-0.1-0.4-0.1-0.7c0.4,0,0.6-0.1,0.8-0.2c0.2-0.1,0.4-0.3,0.5-0.4c0.1-0.2,0.3-0.3,0.3-0.5
	c0.1-0.2,0.1-0.3,0.2-0.5c0.1-0.3,0.1-0.7,0.1-1.3s0-1.2,0-1.9V26.9z M73.9,19.1c0-0.3,0.1-0.6,0.2-0.8c0.1-0.3,0.3-0.5,0.5-0.7
	c0.2-0.2,0.4-0.4,0.7-0.5c0.3-0.1,0.5-0.2,0.8-0.2c0.3,0,0.6,0.1,0.8,0.2c0.3,0.1,0.5,0.3,0.7,0.5c0.2,0.2,0.3,0.4,0.5,0.7
	c0.1,0.3,0.2,0.5,0.2,0.8S78.1,19.7,78,20c-0.1,0.3-0.3,0.5-0.5,0.7c-0.2,0.2-0.4,0.3-0.7,0.5c-0.3,0.1-0.5,0.2-0.8,0.2
	c-0.3,0-0.6-0.1-0.8-0.2c-0.3-0.1-0.5-0.3-0.7-0.5c-0.2-0.2-0.3-0.4-0.5-0.7C74,19.7,73.9,19.4,73.9,19.1z"/>
<path class="st0" d="M80.6,27.1c0-0.8,0-1.4,0-1.9s0-0.9,0-1.2c0-0.3,0-0.6-0.1-0.9c0-0.3,0-0.6-0.1-1c0.4,0.1,0.8,0.1,1.1,0.1
	c0.4,0,0.8,0,1.1,0c0.8,0,1.5-0.1,2.3-0.2c-0.1,1.1-0.1,2.1-0.2,3c0,0.9,0,1.7,0,2.4v1.1c0,0.3,0,0.6,0,1s0,0.7,0,1.1s0,0.7,0,1.1
	c0,0.3,0,0.7,0.1,0.9c-0.4-0.1-0.8-0.1-1.2-0.1c-0.4,0-0.8-0.1-1.2-0.1c-0.4,0-0.7,0-1.1,0.1c-0.4,0-0.7,0.1-1.1,0.1
	c0-0.5,0.1-0.9,0.1-1.3c0-0.4,0-0.7,0.1-1.1c0-0.4,0-0.8,0-1.3C80.6,28.5,80.6,27.9,80.6,27.1z M80.5,19.1c0-0.3,0.1-0.6,0.2-0.8
	c0.1-0.3,0.3-0.5,0.5-0.7c0.2-0.2,0.4-0.4,0.7-0.5c0.3-0.1,0.5-0.2,0.8-0.2c0.3,0,0.6,0.1,0.8,0.2c0.3,0.1,0.5,0.3,0.7,0.5
	c0.2,0.2,0.4,0.4,0.5,0.7c0.1,0.3,0.2,0.5,0.2,0.8s-0.1,0.6-0.2,0.8c-0.1,0.3-0.3,0.5-0.5,0.7c-0.2,0.2-0.4,0.3-0.7,0.5
	c-0.3,0.1-0.5,0.2-0.8,0.2c-0.3,0-0.6-0.1-0.8-0.2s-0.5-0.3-0.7-0.5c-0.2-0.2-0.4-0.4-0.5-0.7C80.6,19.7,80.5,19.4,80.5,19.1z"/>
<path class="st0" d="M92.9,31.2c0.2,0,0.3,0,0.5-0.1c0.2,0,0.3-0.1,0.5-0.2c-0.1,0.2-0.1,0.4-0.1,0.6c0,0.1,0,0.3,0,0.4
	c0,0.1,0,0.2,0.1,0.3c-0.5,0.2-1,0.3-1.5,0.4s-1,0.2-1.6,0.2c-1.2,0-2-0.3-2.6-0.8s-0.8-1.4-0.8-2.4c0-0.5,0-1,0-1.5s0-1,0-1.5v-2.7
	c-0.3,0-0.5,0-0.8,0c-0.3,0-0.5,0-0.7,0.1c0-0.1,0-0.2,0.1-0.4c0-0.1,0-0.3,0-0.4c0-0.1,0-0.3,0-0.4c0-0.1,0-0.3-0.1-0.4
	c0.2,0,0.4,0,0.7,0.1c0.3,0,0.6,0,0.8,0v-2.6c0.7-0.3,1.4-0.6,2.1-1c0.7-0.4,1.3-0.7,2-1.2l0.4,0.2c-0.1,0.3-0.1,0.7-0.1,1.1
	c0,0.4-0.1,0.9-0.1,1.3c0,0.4,0,0.8,0,1.2s0,0.7,0,0.9c0.3,0,0.7,0,1,0c0.3,0,0.6,0,0.9-0.1c-0.1,0.2-0.1,0.5-0.1,0.8
	c0,0.1,0,0.3,0,0.4c0,0.1,0,0.3,0.1,0.4c-0.3,0-0.6,0-0.9-0.1c-0.3,0-0.6,0-0.9,0V30C91.7,30.8,92.1,31.2,92.9,31.2z"/>
<path class="st0" d="M94.3,30c0-0.5,0.1-1,0.3-1.3c0.2-0.4,0.4-0.7,0.8-0.9c0.3-0.2,0.7-0.4,1.2-0.6c0.5-0.2,0.9-0.3,1.5-0.5
	c0.5-0.1,0.9-0.2,1.1-0.3c0.3-0.1,0.5-0.2,0.7-0.3c0.2-0.1,0.3-0.2,0.3-0.3c0.1-0.1,0.1-0.3,0.1-0.5c0-0.3,0-0.5-0.1-0.7
	c-0.1-0.2-0.2-0.3-0.4-0.4c-0.2-0.1-0.4-0.2-0.6-0.2c-0.2,0-0.4-0.1-0.7-0.1c-0.4,0-0.9,0.1-1.3,0.2c-0.4,0.2-0.7,0.4-1,0.8l-0.6,0
	l-0.4-1.8c0.7-0.4,1.4-0.7,2.1-0.9c0.7-0.2,1.5-0.3,2.3-0.3c0.8,0,1.4,0.1,2,0.3s1,0.4,1.4,0.7c0.4,0.3,0.6,0.6,0.8,1
	c0.2,0.4,0.3,0.8,0.3,1.2c0,0.3,0,0.6,0,0.9c0,0.4,0,0.7,0,1.1c0,0.4,0,0.7,0,1.1c0,0.3,0,0.6,0,0.9c0,0.2,0,0.5,0,0.7
	c0,0.2,0,0.4,0.1,0.6c0,0.2,0.1,0.3,0.2,0.4c0.1,0.1,0.2,0.1,0.4,0.1c0.2,0,0.5-0.1,0.7-0.2c0,0.1,0,0.2,0,0.3c0,0.1,0,0.2,0,0.3
	c0,0.1,0,0.2,0,0.3c0,0.1,0,0.2,0,0.3c-0.4,0.3-0.8,0.5-1.3,0.7c-0.5,0.2-1,0.2-1.4,0.2c-0.3,0-0.6,0-0.9-0.1
	c-0.2,0-0.5-0.1-0.6-0.2c-0.2-0.1-0.3-0.2-0.5-0.4s-0.3-0.3-0.4-0.4c-0.4,0.4-0.8,0.6-1.3,0.8c-0.5,0.2-1,0.3-1.5,0.3
	c-0.5,0-0.9,0-1.3-0.1s-0.7-0.3-1-0.5c-0.3-0.2-0.5-0.5-0.7-0.9C94.4,31,94.3,30.5,94.3,30z M98.3,29.6c0,0.4,0.1,0.7,0.2,0.9
	c0.1,0.3,0.3,0.4,0.7,0.4c0.3,0,0.5-0.1,0.7-0.3c0.2-0.2,0.3-0.4,0.3-0.7v-2.6c-0.4,0.1-0.7,0.3-1,0.4c-0.2,0.1-0.4,0.3-0.6,0.4
	c-0.1,0.2-0.2,0.3-0.3,0.6C98.3,29,98.3,29.3,98.3,29.6z"/>
<path class="st0" d="M106.7,21.1c0-0.3,0-0.7,0-1c0-0.4,0-0.8-0.1-1.2c0-0.4-0.1-1-0.1-1.6c0.4,0.1,0.8,0.1,1.1,0.1
	c0.4,0,0.8,0,1.1,0c0.4,0,0.8,0,1.1,0c0.4,0,0.7-0.1,1.1-0.1c0,0.8-0.1,1.7-0.1,2.6s-0.1,1.8-0.1,2.7v5c0,0.4,0,0.9,0,1.3
	s0,0.9,0,1.4c0,0.5,0,0.9,0,1.3c0,0.4,0,0.7,0,1c-0.4-0.1-0.7-0.1-1.1-0.1c-0.4,0-0.7-0.1-1.1-0.1c-0.4,0-0.8,0-1.1,0.1
	c-0.4,0-0.8,0.1-1.1,0.1c0-0.6,0.1-1.3,0.1-2c0-0.7,0.1-1.4,0.1-2.1v-6.4C106.7,21.8,106.7,21.5,106.7,21.1z"/>
<path class="st0" d="M115.7,19.8c0-0.8-0.1-1.6-0.1-2.4c0.3,0.1,0.6,0.1,1,0.1c0.4,0,0.8,0.1,1.3,0.1c0.5,0,0.9,0,1.3-0.1
	s0.7-0.1,0.9-0.1c-0.1,1.4-0.1,2.8-0.2,4.2s-0.1,2.8-0.1,4.2v0.9c0.3-0.3,0.6-0.7,0.9-1.1s0.6-0.7,1-1.1c0.3-0.4,0.6-0.8,0.9-1.2
	c0.3-0.4,0.5-0.8,0.8-1.1c0.3,0.1,0.5,0.1,0.7,0.1c0.2,0,0.5,0,0.7,0c0.3,0,0.5,0,0.7-0.1s0.5-0.1,0.7-0.1v0.3
	c-0.5,0.5-1.1,1.1-1.6,1.6c-0.6,0.6-1.1,1.1-1.7,1.8l3.4,6.1c0.1,0.1,0.1,0.2,0.1,0.2s0.1,0.1,0.2,0.2v0.4c-0.7-0.1-1.5-0.2-2.2-0.2
	c-0.8,0-1.6,0.1-2.3,0.2l-2.3-4.6c0,0.6,0,1.3,0.1,2.1c0,0.7,0.1,1.6,0.2,2.6c-0.4-0.1-0.7-0.1-1.1-0.1c-0.4,0-0.7-0.1-1.1-0.1
	c-0.4,0-0.7,0-1.1,0.1c-0.4,0-0.8,0.1-1.1,0.1c0-0.7,0.1-1.4,0.1-2.1s0.1-1.4,0.1-2.1v-6.4C115.7,21.4,115.7,20.6,115.7,19.8z"/>
<path class="st0" d="M127.8,27.1c0-0.8,0-1.4,0-1.9s0-0.9,0-1.2c0-0.3,0-0.6-0.1-0.9c0-0.3,0-0.6-0.1-1c0.4,0.1,0.8,0.1,1.1,0.1
	c0.4,0,0.8,0,1.1,0c0.8,0,1.5-0.1,2.3-0.2c-0.1,1.1-0.1,2.1-0.2,3c0,0.9,0,1.7,0,2.4v1.1c0,0.3,0,0.6,0,1s0,0.7,0,1.1s0,0.7,0,1.1
	c0,0.3,0,0.7,0.1,0.9c-0.4-0.1-0.8-0.1-1.2-0.1c-0.4,0-0.8-0.1-1.2-0.1c-0.4,0-0.7,0-1.1,0.1c-0.4,0-0.7,0.1-1.1,0.1
	c0-0.5,0.1-0.9,0.1-1.3c0-0.4,0-0.7,0.1-1.1c0-0.4,0-0.8,0-1.3C127.8,28.5,127.8,27.9,127.8,27.1z M127.8,19.1
	c0-0.3,0.1-0.6,0.2-0.8c0.1-0.3,0.3-0.5,0.5-0.7c0.2-0.2,0.4-0.4,0.7-0.5c0.3-0.1,0.5-0.2,0.8-0.2c0.3,0,0.6,0.1,0.8,0.2
	c0.3,0.1,0.5,0.3,0.7,0.5c0.2,0.2,0.4,0.4,0.5,0.7c0.1,0.3,0.2,0.5,0.2,0.8s-0.1,0.6-0.2,0.8c-0.1,0.3-0.3,0.5-0.5,0.7
	c-0.2,0.2-0.4,0.3-0.7,0.5c-0.3,0.1-0.5,0.2-0.8,0.2c-0.3,0-0.6-0.1-0.8-0.2s-0.5-0.3-0.7-0.5c-0.2-0.2-0.4-0.4-0.5-0.7
	C127.8,19.7,127.8,19.4,127.8,19.1z"/>
<path class="st0" d="M140.1,31.2c0.2,0,0.3,0,0.5-0.1c0.2,0,0.3-0.1,0.5-0.2c-0.1,0.2-0.1,0.4-0.1,0.6c0,0.1,0,0.3,0,0.4
	c0,0.1,0,0.2,0.1,0.3c-0.5,0.2-1,0.3-1.5,0.4s-1,0.2-1.6,0.2c-1.2,0-2-0.3-2.6-0.8s-0.8-1.4-0.8-2.4c0-0.5,0-1,0-1.5s0-1,0-1.5v-2.7
	c-0.3,0-0.5,0-0.8,0c-0.3,0-0.5,0-0.7,0.1c0-0.1,0-0.2,0.1-0.4c0-0.1,0-0.3,0-0.4c0-0.1,0-0.3,0-0.4c0-0.1,0-0.3-0.1-0.4
	c0.2,0,0.4,0,0.7,0.1c0.3,0,0.6,0,0.8,0v-2.6c0.7-0.3,1.4-0.6,2.1-1c0.7-0.4,1.3-0.7,2-1.2l0.4,0.2c-0.1,0.3-0.1,0.7-0.1,1.1
	c0,0.4-0.1,0.9-0.1,1.3c0,0.4,0,0.8,0,1.2s0,0.7,0,0.9c0.3,0,0.7,0,1,0c0.3,0,0.6,0,0.9-0.1c-0.1,0.2-0.1,0.5-0.1,0.8
	c0,0.1,0,0.3,0,0.4c0,0.1,0,0.3,0.1,0.4c-0.3,0-0.6,0-0.9-0.1c-0.3,0-0.6,0-0.9,0V30C138.9,30.8,139.3,31.2,140.1,31.2z"/>
<path class="st0" d="M141.5,30c0-0.5,0.1-1,0.3-1.3c0.2-0.4,0.4-0.7,0.8-0.9c0.3-0.2,0.7-0.4,1.2-0.6c0.5-0.2,0.9-0.3,1.5-0.5
	c0.5-0.1,0.9-0.2,1.1-0.3c0.3-0.1,0.5-0.2,0.7-0.3c0.2-0.1,0.3-0.2,0.3-0.3c0.1-0.1,0.1-0.3,0.1-0.5c0-0.3,0-0.5-0.1-0.7
	c-0.1-0.2-0.2-0.3-0.4-0.4c-0.2-0.1-0.4-0.2-0.6-0.2c-0.2,0-0.4-0.1-0.7-0.1c-0.4,0-0.9,0.1-1.3,0.2c-0.4,0.2-0.7,0.4-1,0.8l-0.6,0
	l-0.4-1.8c0.7-0.4,1.4-0.7,2.1-0.9c0.7-0.2,1.5-0.3,2.3-0.3c0.8,0,1.4,0.1,2,0.3s1,0.4,1.4,0.7c0.4,0.3,0.6,0.6,0.8,1
	c0.2,0.4,0.3,0.8,0.3,1.2c0,0.3,0,0.6,0,0.9c0,0.4,0,0.7,0,1.1c0,0.4,0,0.7,0,1.1c0,0.3,0,0.6,0,0.9c0,0.2,0,0.5,0,0.7
	c0,0.2,0,0.4,0.1,0.6c0,0.2,0.1,0.3,0.2,0.4c0.1,0.1,0.2,0.1,0.4,0.1c0.2,0,0.5-0.1,0.7-0.2c0,0.1,0,0.2,0,0.3c0,0.1,0,0.2,0,0.3
	c0,0.1,0,0.2,0,0.3c0,0.1,0,0.2,0,0.3c-0.4,0.3-0.8,0.5-1.3,0.7c-0.5,0.2-1,0.2-1.4,0.2c-0.3,0-0.6,0-0.9-0.1
	c-0.2,0-0.5-0.1-0.6-0.2c-0.2-0.1-0.3-0.2-0.5-0.4s-0.3-0.3-0.4-0.4c-0.4,0.4-0.8,0.6-1.3,0.8c-0.5,0.2-1,0.3-1.5,0.3
	c-0.5,0-0.9,0-1.3-0.1s-0.7-0.3-1-0.5c-0.3-0.2-0.5-0.5-0.7-0.9C141.6,31,141.5,30.5,141.5,30z M145.5,29.6c0,0.4,0.1,0.7,0.2,0.9
	c0.1,0.3,0.3,0.4,0.7,0.4c0.3,0,0.5-0.1,0.7-0.3c0.2-0.2,0.3-0.4,0.3-0.7v-2.6c-0.4,0.1-0.7,0.3-1,0.4c-0.2,0.1-0.4,0.3-0.6,0.4
	c-0.1,0.2-0.2,0.3-0.3,0.6C145.5,29,145.5,29.3,145.5,29.6z"/>
<path class="st0" d="M158,33.9c0,0.4,0,0.7,0,1.1c0,0.4,0,0.8,0,1.1s0,0.7,0.1,1.1c0,0.3,0,0.6,0.1,0.8c-0.4-0.1-0.8-0.1-1.1-0.1
	c-0.3,0-0.7-0.1-1.1-0.1c-0.4,0-0.7,0-1.1,0.1c-0.4,0-0.8,0.1-1.1,0.1c0.1-1.2,0.1-2.4,0.1-3.7c0-1.2,0-2.4,0-3.5c0-1.1,0-2.1,0-2.8
	c0-0.7,0-1.4,0-2c0-0.6,0-1.2-0.1-1.8c0-0.6-0.1-1.3-0.1-2.2c0.4,0,0.7,0.1,1.1,0.1s0.7,0.1,1.1,0.1c0.7,0,1.3-0.1,2-0.2l-0.1,1.2
	c0.4-0.4,0.8-0.8,1.2-1c0.4-0.2,0.9-0.3,1.5-0.3c0.7,0,1.4,0.1,2,0.4s1.1,0.7,1.5,1.2c0.4,0.5,0.7,1.1,0.9,1.7
	c0.2,0.6,0.3,1.3,0.3,2c0,0.7-0.1,1.3-0.3,2c-0.2,0.7-0.5,1.2-0.8,1.8s-0.8,0.9-1.4,1.2c-0.6,0.3-1.2,0.5-2,0.5
	c-0.6,0-1.1-0.1-1.5-0.2c-0.4-0.1-0.8-0.4-1.1-0.8V33.9z M158,27.5c0,0.7,0,1.3,0.1,1.8s0.2,0.8,0.3,1.1c0.1,0.3,0.3,0.5,0.4,0.6
	s0.4,0.2,0.6,0.2c0.5,0,0.8-0.3,1-0.8c0.2-0.5,0.3-1.4,0.3-2.7c0-0.4,0-0.8,0-1.2c0-0.4-0.1-0.8-0.2-1.2c-0.1-0.4-0.2-0.7-0.4-0.9
	s-0.4-0.4-0.8-0.4c-0.3,0-0.6,0.1-0.8,0.4c-0.2,0.2-0.3,0.5-0.4,0.9c-0.1,0.4-0.1,0.7-0.2,1.2C158,26.7,158,27.1,158,27.5z"/>
</svg>
